<svg width="20" height="20" viewBox="0 0 20 20" fill="none" xmlns="http://www.w3.org/2000/svg">
<path d="M8.09058 6.22623C8.17995 6.22623 8.2687 6.20498 8.3512 6.16311L12.4106 4.08061C12.6106 3.97811 12.7337 3.76811 12.7262 3.54123C12.7187 3.31436 12.5825 3.11311 12.3762 3.02373L8.38433 1.29623C8.20808 1.21998 8.00495 1.23686 7.8437 1.34311C7.68183 1.44811 7.5837 1.62811 7.57995 1.82248L7.55808 3.06373C4.4512 4.11373 2.39058 7.04498 2.5037 10.3456C2.5937 12.9669 4.09245 15.3762 6.4162 16.6325C6.50308 16.6794 6.5962 16.7012 6.68808 16.7012C6.89433 16.7012 7.0937 16.5894 7.19745 16.3931C7.34745 16.1087 7.24183 15.7556 6.96058 15.6037C4.9987 14.5425 3.73308 12.5125 3.65683 10.305C3.5662 7.66498 5.13183 5.30498 7.5362 4.31498L7.51308 5.63186C7.50995 5.83623 7.61245 6.02811 7.78433 6.13686C7.87745 6.19686 7.9837 6.22623 8.09058 6.22623ZM10.7875 3.60561L8.68495 4.68436L8.71995 2.71061L10.7875 3.60561ZM17.4956 9.83998C17.4118 7.40623 16.1306 5.16373 14.0693 3.84061C13.7981 3.66748 13.4431 3.74811 13.2725 4.02061C13.1025 4.29248 13.1818 4.65311 13.4506 4.82561C15.1912 5.94248 16.2731 7.83186 16.3431 9.87998C16.4275 12.3287 15.0768 14.5587 12.9231 15.6587L12.8893 14.3425C12.8831 14.1381 12.7725 13.9519 12.5968 13.8506C12.4212 13.75 12.2056 13.7487 12.03 13.8494L8.06308 16.1006C7.86745 16.2119 7.7537 16.4269 7.76995 16.6531C7.78683 16.8787 7.9312 17.0744 8.1412 17.155L12.205 18.7125C12.2718 18.7375 12.3406 18.75 12.4093 18.75C12.5268 18.75 12.6443 18.7131 12.7431 18.6425C12.9 18.53 12.9906 18.3456 12.9862 18.1519L12.955 16.9281C15.7906 15.7262 17.6018 12.93 17.4956 9.83998ZM9.70495 16.5062L11.76 15.34L11.8106 17.3131L9.70495 16.5062Z" fill="#FF4100"/>
</svg>
