<svg width="48" height="48" viewBox="0 0 48 48" fill="none" xmlns="http://www.w3.org/2000/svg">
<path d="M24 0C10.7451 0 0 10.7451 0 24C0 31.429 3.37597 38.0692 8.67683 42.4715L8.77479 42.4254V41.136C8.77479 39.0294 10.4886 37.3156 12.5952 37.3156H35.4048C37.5114 37.3156 39.2252 39.0294 39.2252 41.136V42.4254L39.3232 42.4715C44.624 38.0692 48 31.429 48 24C48 10.7451 37.2548 0 24 0Z" fill="#242424"/>
<path d="M16.3599 35.3165H31.6415V37.3156H16.3599V35.3165Z" fill="white"/>
<path d="M16.3599 35.3165H20.2782V37.3156H16.3599V35.3165Z" fill="#EAF6FF"/>
<path d="M35.4057 37.2177H12.5961C10.4321 37.2177 8.67773 38.972 8.67773 41.136V42.4715C12.8346 45.9237 18.1752 48 24.0009 48C29.8266 48 35.1672 45.9237 39.3241 42.4715V41.136C39.3241 38.9719 37.5697 37.2177 35.4057 37.2177Z" fill="#D8ECFE"/>
<path d="M12.7505 41.136C12.7505 38.972 14.5048 37.2177 16.6689 37.2177H12.5961C10.4321 37.2177 8.67773 38.972 8.67773 41.136V42.4715C9.93357 43.5144 11.2979 44.4307 12.7505 45.2032V41.136Z" fill="#C4E2FF"/>
<path d="M24.3719 44.8102L27.1753 41.5608C27.4491 41.2434 27.2236 40.7511 26.8045 40.7511H21.1978C20.7786 40.7511 20.5531 41.2434 20.8269 41.5608L23.6303 44.8102C23.8256 45.0367 24.1765 45.0367 24.3719 44.8102Z" fill="white"/>
<path d="M22.8475 41.5608C22.5737 41.2434 22.7991 40.7511 23.2184 40.7511H21.1978C20.7786 40.7511 20.5531 41.2434 20.8269 41.5608L23.6302 44.8102C23.8256 45.0367 24.1765 45.0367 24.3719 44.8102L25.0114 44.069L22.8475 41.5608Z" fill="#EAF6FF"/>
<path d="M8.51391 30.8306V26.5788C8.51391 25.797 8.59169 25.0331 8.73883 24.2938H8.02314C6.57648 24.2938 5.40381 25.4665 5.40381 26.9132V29.1396C5.40381 30.5862 6.57648 31.7589 8.02314 31.7589H8.61119C8.54781 31.4593 8.51391 31.1489 8.51391 30.8306Z" fill="white"/>
<path d="M39.9796 24.2939H39.2639C39.4111 25.0331 39.4888 25.7971 39.4888 26.5789V30.8308C39.4888 31.149 39.4549 31.4595 39.3917 31.7591H39.9797C41.4264 31.7591 42.599 30.5864 42.599 29.1398V26.9134C42.5989 25.4666 41.4263 24.2939 39.9796 24.2939Z" fill="white"/>
<path d="M35.0025 35.4145H13.0001C10.4685 35.4145 8.41626 33.3623 8.41626 30.8307V26.5789C8.41626 20.0691 13.6934 14.7919 20.2032 14.7919H27.7992C34.309 14.7919 39.5863 20.0691 39.5863 26.5789V30.8307C39.5863 33.3623 37.534 35.4145 35.0025 35.4145Z" fill="#D8ECFE"/>
<path d="M13.5197 30.8306V29.3069C12.7812 28.2656 12.3453 26.9953 12.3453 25.6244C12.3453 23.319 13.5741 21.2954 15.411 20.1736C17.5118 16.9348 21.1588 14.7919 25.3068 14.7919H20.2033C13.6935 14.7919 8.41626 20.0691 8.41626 26.5789V30.8307C8.41626 33.3623 10.4685 35.4145 13.0001 35.4145H18.1035C15.572 35.4145 13.5197 33.3623 13.5197 30.8306Z" fill="#C4E2FF"/>
<path d="M18.7275 32.0069C15.2084 32.0069 12.3452 29.1437 12.3452 25.6245C12.3452 22.1053 15.2084 19.2422 18.7275 19.2422H29.275C32.7942 19.2422 35.6573 22.1053 35.6573 25.6245C35.6573 29.1437 32.7942 32.0069 29.275 32.0069H18.7275Z" fill="#116D9A"/>
<path d="M16.4584 25.6245C16.4584 22.1053 19.3216 19.2422 22.8408 19.2422H18.7275C15.2084 19.2422 12.3452 22.1053 12.3452 25.6245C12.3452 29.1437 15.2084 32.0069 18.7275 32.0069H22.8408C19.3216 32.0069 16.4584 29.1437 16.4584 25.6245Z" fill="#005E89"/>
<path d="M27.4066 28.7022H20.5963C20.2346 28.7022 19.9414 28.409 19.9414 28.0474V26.9996C19.9414 26.6379 20.2346 26.3447 20.5963 26.3447H27.4066C27.7682 26.3447 28.0614 26.6379 28.0614 26.9996V28.0474C28.0614 28.409 27.7682 28.7022 27.4066 28.7022Z" fill="#F2C94C"/>
<path d="M18.7949 25.559H17.0924C16.7307 25.559 16.4375 25.2658 16.4375 24.9041V23.2016C16.4375 22.8399 16.7307 22.5468 17.0924 22.5468H18.7949C19.1566 22.5468 19.4497 22.8399 19.4497 23.2016V24.9041C19.4497 25.2658 19.1566 25.559 18.7949 25.559Z" fill="#F2C94C"/>
<path d="M30.9089 25.559H29.2064C28.8447 25.559 28.5515 25.2658 28.5515 24.9041V23.2016C28.5515 22.8399 28.8447 22.5468 29.2064 22.5468H30.9089C31.2706 22.5468 31.5638 22.8399 31.5638 23.2016V24.9041C31.5638 25.2658 31.2706 25.559 30.9089 25.559Z" fill="#F2C94C"/>
</svg>
