<svg width="16" height="19" viewBox="0 0 16 19" fill="none" xmlns="http://www.w3.org/2000/svg">
<path d="M-16.25 -0.0996094C-11.0254 -0.0996094 -6.77539 4.1504 -6.77539 9.375C-6.77539 14.5996 -11.0254 18.8496 -16.25 18.8496C-21.4746 18.8496 -25.7246 14.5996 -25.7246 9.375C-25.7246 4.1504 -21.4746 -0.0996094 -16.25 -0.0996094ZM-16.25 0.724609C-21.0195 0.724609 -24.9004 4.60554 -24.9004 9.375C-24.9004 14.1445 -21.0195 18.0254 -16.25 18.0254C-11.4805 18.0254 -7.59961 14.1445 -7.59961 9.375C-7.59961 4.60554 -11.4805 0.724609 -16.25 0.724609ZM11.5977 4.10059C11.9446 3.8132 12.4618 3.79179 12.834 4.03223C12.8907 4.0689 12.9456 4.11123 12.9951 4.16113H12.9941L15.2139 6.38086C15.6171 6.78448 15.6172 7.44038 15.2139 7.84375L9.3457 13.7119C9.29344 13.7642 9.22736 13.8021 9.15527 13.8203L4.99707 14.8799C4.96329 14.8885 4.92908 14.8926 4.89551 14.8926C4.78743 14.8926 4.68187 14.8498 4.60352 14.7715C4.50082 14.6688 4.45931 14.5189 4.49512 14.3779L5.55469 10.2197C5.57292 10.1476 5.60984 10.0816 5.66211 10.0293L11.5312 4.16113L11.5977 4.10059ZM6.3252 10.5332L5.46582 13.9082L8.84082 13.0488L13.4854 8.40527L10.9688 5.88867L6.3252 10.5332ZM12.4111 4.74414C12.333 4.66626 12.1927 4.6667 12.1143 4.74512L11.5527 5.30566L14.0684 7.82129L14.6299 7.26074C14.7015 7.18913 14.7107 7.07831 14.6572 6.99707L14.6299 6.96387L12.4111 4.74414Z" fill="#FF4100" stroke="#FF4100" stroke-width="0.2"/>
</svg>
