<svg width="25" height="25" viewBox="0 0 25 25" fill="none" xmlns="http://www.w3.org/2000/svg">
<path d="M3.35083 17.5718V17.5708L7.59497 21.8149V21.8159C7.64021 21.8613 7.68731 21.9047 7.73462 21.9478C7.46341 22.1098 7.1524 22.1997 6.8313 22.1997C6.42575 22.1996 6.03442 22.0602 5.72192 21.8071L5.59302 21.6919L3.4729 19.5718C3.14518 19.2437 2.96118 18.7982 2.96118 18.3345C2.96127 18.0125 3.05104 17.7002 3.21509 17.4292C3.2592 17.4777 3.30434 17.5254 3.35083 17.5718ZM14.7346 4.43896C15.1405 4.439 15.5317 4.5805 15.843 4.83545L15.9719 4.95166L20.2161 9.19482C20.5441 9.52298 20.7278 9.96814 20.7278 10.4321C20.7278 10.8382 20.5874 11.2301 20.3323 11.5415L20.2161 11.6694L19.7385 12.146C19.6165 12.268 19.4771 12.3716 19.3254 12.4526L19.1702 12.5259C18.9579 12.6138 18.73 12.6587 18.5002 12.6587C18.3279 12.6587 18.1568 12.6334 17.9924 12.5835L17.8313 12.5259C17.6722 12.46 17.5235 12.371 17.3909 12.2622L17.2629 12.146L15.6711 10.5562L15.3176 10.2026L10.7219 14.7983L10.3694 15.1519L10.7219 15.5054L12.3127 17.0972C12.6408 17.4253 12.8254 17.8704 12.8254 18.3345C12.8254 18.7981 12.6413 19.2428 12.3137 19.5708L11.8352 20.0483C11.507 20.3763 11.0619 20.561 10.5979 20.561C10.192 20.561 9.80078 20.4195 9.4895 20.1646L9.3606 20.0483L5.11743 15.8052C4.7894 15.477 4.60478 15.0318 4.60474 14.5679C4.60474 14.1618 4.7461 13.7699 5.00122 13.4585L5.11743 13.3306L5.59497 12.854V12.853C5.71695 12.731 5.85646 12.6284 6.00806 12.5474L6.16333 12.4741C6.37561 12.3862 6.60349 12.3403 6.83325 12.3403C7.00565 12.3404 7.1767 12.3666 7.34106 12.4165L7.5022 12.4741C7.66133 12.54 7.80993 12.6289 7.94263 12.7378L8.07056 12.853V12.854L9.66235 14.4438L10.0159 14.7974L10.3694 14.4438L14.6106 10.2017L14.9641 9.84814L14.6116 9.49463L13.0208 7.90283C12.6927 7.57466 12.5081 7.12956 12.5081 6.66553C12.5081 6.20155 12.6927 5.75636 13.0208 5.42822L13.0198 5.42725L13.4973 4.95166C13.8255 4.62359 14.2706 4.43896 14.7346 4.43896ZM18.5012 2.79443C18.9068 2.79443 19.2984 2.93535 19.6096 3.18994L19.7385 3.30615L21.8606 5.42822C22.1882 5.75625 22.3722 6.20097 22.3723 6.66455C22.3723 6.9868 22.2807 7.29867 22.1165 7.56982C22.0728 7.52181 22.0287 7.47411 21.9827 7.42822H21.9817L17.7375 3.18408H17.7385C17.6922 3.13759 17.6445 3.09245 17.5959 3.04834C17.8669 2.88429 18.1792 2.79452 18.5012 2.79443Z" stroke="white"/>
</svg>
