<svg width="20" height="20" viewBox="0 0 20 20" fill="none" xmlns="http://www.w3.org/2000/svg">
<path d="M5.27778 16.1111C5.21383 16.1106 5.15202 16.088 5.10278 16.0472C3.85208 15.0356 2.94582 13.661 2.50881 12.1129C2.07181 10.5648 2.12557 8.91927 2.66269 7.40298C3.1998 5.88669 4.19385 4.57423 5.50791 3.64639C6.82197 2.71855 8.39139 2.22098 10 2.2222C11.1895 2.21868 12.3637 2.49059 13.4306 3.01665C13.4965 3.04946 13.5467 3.10709 13.5701 3.17689C13.5935 3.24668 13.5883 3.32293 13.5556 3.38887C13.5396 3.42174 13.5172 3.45114 13.4898 3.47536C13.4625 3.49959 13.4306 3.51817 13.396 3.53004C13.3614 3.54191 13.3248 3.54684 13.2883 3.54454C13.2518 3.54224 13.2162 3.53276 13.1833 3.51665C11.5652 2.72203 9.70836 2.5613 7.97774 3.06605C6.24712 3.57079 4.76783 4.70451 3.83056 6.24442C2.92143 7.73851 2.58534 9.51174 2.88471 11.2349C3.18407 12.958 4.09854 14.514 5.45833 15.6139C5.48666 15.637 5.51015 15.6655 5.52745 15.6977C5.54474 15.7299 5.5555 15.7652 5.55912 15.8016C5.56273 15.838 5.55912 15.8748 5.5485 15.9098C5.53788 15.9447 5.52045 15.9773 5.49722 16.0055C5.47106 16.0386 5.43771 16.0654 5.39968 16.0836C5.36166 16.1019 5.31997 16.1113 5.27778 16.1111ZM10 17.7778C8.7589 17.7811 7.53534 17.4848 6.43333 16.9139C6.36777 16.88 6.31835 16.8214 6.29595 16.7511C6.27355 16.6808 6.28 16.6044 6.31389 16.5389C6.34778 16.4733 6.40633 16.4239 6.47665 16.4015C6.54698 16.3791 6.62332 16.3855 6.68889 16.4194C8.0887 17.142 9.68637 17.387 11.2384 17.1172C12.7904 16.8475 14.2117 16.0776 15.2855 14.9251C16.3594 13.7726 17.027 12.3005 17.1866 10.7333C17.3462 9.16614 16.989 7.58976 16.1694 6.24442C15.7379 5.53837 15.1893 4.91089 14.5472 4.38887C14.4904 4.34264 14.4541 4.27583 14.4463 4.203C14.4385 4.13017 14.4598 4.0572 14.5056 3.99998C14.5285 3.97144 14.5568 3.94772 14.5889 3.93017C14.6211 3.91262 14.6563 3.9016 14.6927 3.89773C14.7291 3.89385 14.7659 3.89721 14.801 3.90761C14.8361 3.91801 14.8688 3.93524 14.8972 3.95831C15.5879 4.52012 16.1779 5.19553 16.6417 5.95554C17.3595 7.13468 17.7506 8.48364 17.7747 9.86389C17.7989 11.2441 17.4553 12.606 16.7791 13.8095C16.103 15.013 15.1187 16.0149 13.9273 16.7123C12.736 17.4097 11.3805 17.7774 10 17.7778Z" fill="#FF4100"/>
<path d="M9.72225 17.5C9.65341 17.4998 9.58708 17.474 9.53614 17.4277C8.49286 16.4922 7.69784 15.3125 7.22225 13.9944C6.69473 12.7275 6.41197 11.3721 6.38892 9.99996C6.39197 8.62474 6.67553 7.26461 7.22225 6.00273C7.74373 4.70923 8.53219 3.54026 9.53614 2.57218C9.59136 2.52783 9.66144 2.50625 9.73204 2.51186C9.80265 2.51746 9.86845 2.54982 9.91598 2.60233C9.96352 2.65483 9.98921 2.72351 9.98779 2.79432C9.98637 2.86513 9.95796 2.93273 9.90836 2.98329C8.95969 3.89641 8.21389 4.99903 7.71947 6.2194C7.20767 7.41406 6.944 8.70028 6.94447 9.99996C6.9623 11.2989 7.22622 12.5827 7.72225 13.7833C8.17127 15.0258 8.92257 16.137 9.90836 17.0166C9.9498 17.0543 9.9789 17.1036 9.99181 17.1581C10.0047 17.2126 10.0009 17.2697 9.98075 17.322C9.96062 17.3743 9.92517 17.4192 9.87904 17.451C9.83291 17.4827 9.77825 17.4998 9.72225 17.5Z" fill="#FF4100"/>
<path d="M10.2778 17.4999C10.2217 17.4998 10.1671 17.4827 10.121 17.4509C10.0748 17.4192 10.0394 17.3742 10.0193 17.322C9.99913 17.2697 9.99527 17.2126 10.0082 17.1581C10.0211 17.1036 10.0502 17.0543 10.0916 17.0166C11.0774 16.137 11.8287 15.0258 12.2778 13.7833C12.7738 12.5826 13.0377 11.2989 13.0555 9.99992C13.056 8.70024 12.7923 7.41403 12.2805 6.21937C11.7861 4.99899 11.0403 3.89638 10.0916 2.98325C10.0621 2.95955 10.0378 2.93005 10.02 2.89659C10.0023 2.86312 9.99166 2.82639 9.98866 2.78865C9.98567 2.7509 9.99042 2.71295 10.0026 2.67711C10.0148 2.64127 10.0342 2.6083 10.0597 2.58023C10.0851 2.55216 10.1159 2.52959 10.1504 2.51389C10.1849 2.49819 10.2222 2.4897 10.26 2.48895C10.2979 2.48819 10.3355 2.49518 10.3705 2.50949C10.4056 2.52379 10.4373 2.54512 10.4639 2.57214C11.4728 3.53889 12.2661 4.70795 12.7916 6.0027C13.3336 7.26557 13.6124 8.62567 13.6111 9.99992C13.588 11.3721 13.3053 12.7275 12.7778 13.9944C12.299 15.3137 11.5001 16.4934 10.4528 17.4277C10.4047 17.4715 10.3427 17.4971 10.2778 17.4999Z" fill="#FF4100"/>
<path d="M17.4999 10.2777H2.49995C2.42627 10.2777 2.35562 10.2484 2.30353 10.1963C2.25143 10.1442 2.22217 10.0736 2.22217 9.99992C2.22217 9.92625 2.25143 9.85559 2.30353 9.8035C2.35562 9.75141 2.42627 9.72214 2.49995 9.72214H17.4999C17.5736 9.72214 17.6443 9.75141 17.6964 9.8035C17.7485 9.85559 17.7777 9.92625 17.7777 9.99992C17.7777 10.0736 17.7485 10.1442 17.6964 10.1963C17.6443 10.2484 17.5736 10.2777 17.4999 10.2777ZM16.3888 6.38881H3.61106C3.53739 6.38881 3.46673 6.35954 3.41464 6.30745C3.36254 6.25536 3.33328 6.1847 3.33328 6.11103C3.33328 6.03736 3.36254 5.9667 3.41464 5.91461C3.46673 5.86252 3.53739 5.83325 3.61106 5.83325H16.3888C16.4625 5.83325 16.5332 5.86252 16.5853 5.91461C16.6373 5.9667 16.6666 6.03736 16.6666 6.11103C16.6666 6.1847 16.6373 6.25536 16.5853 6.30745C16.5332 6.35954 16.4625 6.38881 16.3888 6.38881ZM16.3888 14.1666H3.61106C3.53739 14.1666 3.46673 14.1373 3.41464 14.0852C3.36254 14.0331 3.33328 13.9625 3.33328 13.8888C3.33328 13.8151 3.36254 13.7445 3.41464 13.6924C3.46673 13.6403 3.53739 13.611 3.61106 13.611H16.3888C16.4625 13.611 16.5332 13.6403 16.5853 13.6924C16.6373 13.7445 16.6666 13.8151 16.6666 13.8888C16.6666 13.9625 16.6373 14.0331 16.5853 14.0852C16.5332 14.1373 16.4625 14.1666 16.3888 14.1666Z" fill="#FF4100"/>
<path d="M9.99995 17.5C9.92627 17.5 9.85562 17.4707 9.80353 17.4186C9.75143 17.3665 9.72217 17.2959 9.72217 17.2222V2.77778C9.72217 2.70411 9.75143 2.63345 9.80353 2.58136C9.85562 2.52927 9.92627 2.5 9.99995 2.5C10.0736 2.5 10.1443 2.52927 10.1964 2.58136C10.2485 2.63345 10.2777 2.70411 10.2777 2.77778V17.2222C10.2777 17.2959 10.2485 17.3665 10.1964 17.4186C10.1443 17.4707 10.0736 17.5 9.99995 17.5Z" fill="#FF4100"/>
</svg>
