<svg width="20" height="20" viewBox="0 0 20 20" fill="none" xmlns="http://www.w3.org/2000/svg">
<path d="M10.4916 10.8334L8.57496 12.7417C8.49685 12.8192 8.43486 12.9113 8.39255 13.0129C8.35024 13.1144 8.32846 13.2234 8.32846 13.3334C8.32846 13.4434 8.35024 13.5523 8.39255 13.6539C8.43486 13.7554 8.49685 13.8476 8.57496 13.925C8.65243 14.0031 8.7446 14.0651 8.84615 14.1075C8.94769 14.1498 9.05662 14.1715 9.16663 14.1715C9.27664 14.1715 9.38556 14.1498 9.48711 14.1075C9.58866 14.0651 9.68082 14.0031 9.75829 13.925L13.0916 10.5917C13.1675 10.5125 13.227 10.419 13.2666 10.3167C13.35 10.1138 13.35 9.88626 13.2666 9.68338C13.227 9.58108 13.1675 9.48763 13.0916 9.40838L9.75829 6.07504C9.68059 5.99734 9.58835 5.93571 9.48683 5.89366C9.38532 5.85161 9.27651 5.82997 9.16663 5.82997C9.05674 5.82997 8.94794 5.85161 8.84642 5.89366C8.7449 5.93571 8.65266 5.99734 8.57496 6.07504C8.49726 6.15274 8.43563 6.24498 8.39358 6.3465C8.35153 6.44802 8.32988 6.55683 8.32988 6.66671C8.32988 6.77659 8.35153 6.8854 8.39358 6.98692C8.43563 7.08844 8.49726 7.18068 8.57496 7.25838L10.4916 9.16671H2.49996C2.27895 9.16671 2.06698 9.25451 1.9107 9.41079C1.75442 9.56707 1.66663 9.77903 1.66663 10C1.66663 10.2211 1.75442 10.433 1.9107 10.5893C2.06698 10.7456 2.27895 10.8334 2.49996 10.8334H10.4916ZM9.99996 1.66671C8.44254 1.65976 6.91433 2.08939 5.58868 2.90687C4.26304 3.72435 3.193 4.89697 2.49996 6.29171C2.4005 6.49062 2.38414 6.7209 2.45446 6.93187C2.52479 7.14285 2.67605 7.31725 2.87496 7.41671C3.07387 7.51617 3.30415 7.53253 3.51512 7.4622C3.7261 7.39188 3.9005 7.24062 3.99996 7.04171C4.52678 5.97781 5.32815 5.07389 6.32125 4.42337C7.31435 3.77284 8.46314 3.39931 9.64892 3.34137C10.8347 3.28343 12.0144 3.54319 13.0662 4.0938C14.118 4.64441 15.0037 5.4659 15.6317 6.47337C16.2598 7.48084 16.6074 8.63775 16.6386 9.82453C16.6699 11.0113 16.3837 12.1849 15.8096 13.2241C15.2354 14.2632 14.3942 15.1302 13.3729 15.7354C12.3516 16.3406 11.1871 16.6621 9.99996 16.6667C8.75736 16.6721 7.53842 16.327 6.48304 15.6711C5.42765 15.0152 4.57859 14.0749 4.03329 12.9584C3.93384 12.7595 3.75944 12.6082 3.54846 12.5379C3.33748 12.4676 3.10721 12.4839 2.90829 12.5834C2.70938 12.6828 2.55812 12.8572 2.4878 13.0682C2.41747 13.2792 2.43384 13.5095 2.53329 13.7084C3.19398 15.038 4.19789 16.1669 5.44118 16.9784C6.68448 17.7899 8.122 18.2545 9.60506 18.3242C11.0881 18.3939 12.5629 18.066 13.8767 17.3746C15.1906 16.6832 16.2959 15.6534 17.0783 14.3916C17.8608 13.1298 18.2919 11.6818 18.327 10.1975C18.3622 8.71327 18.0002 7.24654 17.2785 5.94907C16.5568 4.6516 15.5015 3.57051 14.2218 2.81763C12.9422 2.06475 11.4847 1.66741 9.99996 1.66671Z" fill="#FF4100"/>
</svg>
