<svg width="20" height="20" viewBox="0 0 20 20" fill="none" xmlns="http://www.w3.org/2000/svg">
<path d="M10.7667 12.4999C10.7501 12.4487 10.7247 12.4008 10.6917 12.3583L10.5917 12.2333C10.5142 12.1552 10.4221 12.0932 10.3205 12.0509C10.219 12.0085 10.1101 11.9868 10 11.9868C9.89004 11.9868 9.78111 12.0085 9.67956 12.0509C9.57802 12.0932 9.48585 12.1552 9.40838 12.2333C9.36865 12.2694 9.3349 12.3116 9.30838 12.3583C9.2754 12.4008 9.25002 12.4487 9.23338 12.4999C9.20925 12.5501 9.19241 12.6034 9.18338 12.6583C9.1793 12.711 9.1793 12.7639 9.18338 12.8166C9.18048 12.9286 9.20329 13.0398 9.25005 13.1416C9.33485 13.3443 9.49624 13.5052 9.69912 13.5895C9.902 13.6738 10.1299 13.6745 10.3334 13.5916C10.4347 13.5463 10.5276 13.4843 10.6084 13.4083C10.6833 13.3315 10.7428 13.2409 10.7834 13.1416C10.8272 13.0388 10.8498 12.9283 10.85 12.8166C10.8541 12.7639 10.8541 12.711 10.85 12.6583C10.8306 12.6015 10.8025 12.5481 10.7667 12.4999ZM10 6.13327C9.77903 6.13327 9.56707 6.22106 9.41079 6.37734C9.25451 6.53362 9.16671 6.74558 9.16671 6.9666V9.4666C9.16671 9.68761 9.25451 9.89957 9.41079 10.0559C9.56707 10.2121 9.77903 10.2999 10 10.2999C10.2211 10.2999 10.433 10.2121 10.5893 10.0559C10.7456 9.89957 10.8334 9.68761 10.8334 9.4666V6.9666C10.8334 6.74558 10.7456 6.53362 10.5893 6.37734C10.433 6.22106 10.2211 6.13327 10 6.13327ZM16.3584 3.0416C16.2616 2.96328 16.1484 2.90766 16.0273 2.87882C15.9062 2.84997 15.7801 2.84865 15.6584 2.87493C14.7679 3.06155 13.8487 3.06393 12.9572 2.88192C12.0658 2.69991 11.2211 2.33736 10.475 1.8166C10.3355 1.71983 10.1698 1.66797 10 1.66797C9.83027 1.66797 9.66454 1.71983 9.52505 1.8166C8.77901 2.33736 7.93427 2.69991 7.04285 2.88192C6.15143 3.06393 5.23218 3.06155 4.34171 2.87493C4.21999 2.84865 4.09393 2.84997 3.9728 2.87882C3.85166 2.90766 3.73853 2.96328 3.64171 3.0416C3.54503 3.12003 3.46715 3.21913 3.41379 3.33161C3.36043 3.44409 3.33296 3.5671 3.33338 3.6916V9.89993C3.33264 11.0947 3.61736 12.2724 4.16382 13.3349C4.71029 14.3974 5.5027 15.314 6.47505 16.0083L9.51671 18.1749C9.65785 18.2754 9.82679 18.3294 10 18.3294C10.1733 18.3294 10.3422 18.2754 10.4834 18.1749L13.525 16.0083C14.4974 15.314 15.2898 14.3974 15.8363 13.3349C16.3827 12.2724 16.6675 11.0947 16.6667 9.89993V3.6916C16.6671 3.5671 16.6397 3.44409 16.5863 3.33161C16.5329 3.21913 16.4551 3.12003 16.3584 3.0416ZM15 9.89993C15.0007 10.8289 14.7795 11.7446 14.3548 12.5708C13.9301 13.397 13.3142 14.1098 12.5584 14.6499L10 16.4749L7.44171 14.6499C6.68591 14.1098 6.07003 13.397 5.64534 12.5708C5.22064 11.7446 4.99941 10.8289 5.00005 9.89993V4.64993C6.74707 4.79946 8.49675 4.39412 10 3.4916C11.5033 4.39412 13.253 4.79946 15 4.64993V9.89993Z" fill="#FF4100"/>
</svg>
